<?xml version="1.0" standalone="no"?>
<!DOCTYPE svg PUBLIC "-//W3C//DTD SVG 20010904//EN"
 "http://www.w3.org/TR/2001/REC-SVG-20010904/DTD/svg10.dtd">
<svg version="1.0" xmlns="http://www.w3.org/2000/svg"
 width="871.000000pt" height="163.000000pt" viewBox="0 0 871.000000 163.000000"
 preserveAspectRatio="xMidYMid meet">
<metadata>
Created by potrace 1.16, written by Peter Selinger 2001-2019
</metadata>
<g transform="translate(0.000000,163.000000) scale(0.100000,-0.100000)"
fill="#000000" stroke="none">
<path d="M180 830 l0 -670 1330 0 1330 0 0 670 0 670 -1330 0 -1330 0 0 -670z
m1330 -5 l0 -595 -595 0 -595 0 0 595 0 595 595 0 595 0 0 -595z m515 560 c24
-23 25 -28 25 -175 l0 -150 -55 0 -55 0 0 125 0 125 -120 0 -120 0 0 -115 c0
-111 1 -115 28 -147 16 -18 95 -113 175 -211 l147 -178 0 -176 c0 -238 16
-223 -225 -223 l-182 0 -24 26 c-23 24 -24 32 -27 185 l-3 159 55 0 56 0 0
-140 0 -140 120 0 120 0 0 139 0 138 -165 199 c-114 137 -168 211 -176 238 -6
22 -9 96 -7 168 3 128 3 130 31 154 27 23 33 24 203 24 172 0 175 0 199 -25z
m317 -217 l3 -242 108 235 c60 129 112 238 116 242 5 4 33 7 64 5 l56 -3 -130
-276 -130 -275 126 -265 c70 -145 133 -279 141 -297 l15 -33 -62 3 -61 3 -124
260 -124 260 0 -262 0 -263 -55 0 -55 0 0 575 0 575 55 0 55 0 2 -242z"/>
<path d="M360 825 l0 -555 555 0 555 0 0 555 0 555 -555 0 -555 0 0 -555z
m1020 496 c6 -16 22 -39 36 -52 l24 -22 0 -423 0 -422 -30 -32 c-17 -18 -33
-43 -36 -56 l-6 -24 -457 0 -456 0 -24 44 c-12 25 -29 47 -37 50 -12 4 -14 77
-14 437 l0 431 24 19 c13 10 29 32 36 49 l12 30 458 0 458 0 12 -29z"/>
<path d="M480 1315 c0 -4 5 -27 11 -52 10 -37 9 -47 -2 -54 -24 -15 -39 -10
-39 12 0 18 -2 19 -15 9 -12 -10 -15 -47 -15 -217 l0 -205 25 6 c22 6 25 2 35
-35 13 -48 8 -69 -17 -69 -12 0 -14 -3 -7 -8 15 -9 37 -89 29 -102 -14 -23
-45 -10 -54 23 -9 30 -9 29 -10 -21 -1 -50 0 -52 22 -47 20 5 24 1 34 -38 7
-24 10 -53 7 -64 -3 -11 -1 -38 5 -59 7 -25 7 -40 1 -42 -6 -2 -10 -8 -10 -13
0 -5 177 -9 431 -9 l432 0 -6 38 c-3 20 -9 47 -13 60 -5 17 -2 22 12 22 11 0
15 3 8 8 -9 6 -37 93 -31 98 1 1 12 5 24 8 20 6 24 2 36 -41 9 -28 11 -50 5
-54 -12 -8 1 -61 13 -53 5 3 9 99 9 215 0 187 -2 209 -16 209 -14 0 -15 -7 -9
-37 13 -68 11 -78 -11 -81 -17 -2 -24 5 -33 29 -15 44 -14 69 4 69 17 0 19 21
5 70 -6 19 -6 38 -1 43 5 5 3 29 -5 55 -15 48 -7 65 26 59 20 -3 39 -89 21
-95 -7 -2 -9 -8 -2 -15 5 -7 11 -21 14 -32 2 -11 5 26 6 83 l1 103 -27 -3
c-24 -3 -27 2 -38 44 -11 40 -10 48 2 52 30 12 40 5 50 -36 l11 -43 1 54 c1
52 0 53 -24 47 -22 -6 -25 -2 -35 34 -6 22 -10 48 -8 58 3 16 -25 17 -424 20
-236 1 -428 0 -428 -3z m257 -145 c3 -11 11 -20 19 -20 7 0 11 6 8 14 -3 9 3
17 15 21 25 8 41 -1 41 -21 0 -8 7 -14 16 -14 10 0 14 6 11 14 -3 8 1 17 9 20
30 11 44 6 45 -16 l0 -23 9 23 c12 27 46 29 53 2 3 -11 10 -20 15 -20 5 0 12
9 15 20 3 11 14 20 25 20 11 0 22 -9 25 -20 3 -11 10 -20 15 -20 5 0 12 9 15
20 3 12 14 20 25 20 12 0 23 -9 27 -20 3 -11 15 -20 25 -20 13 0 17 5 14 14
-6 16 33 33 46 19 14 -13 24 -93 12 -93 -6 0 -17 -3 -25 -6 -11 -4 -17 2 -20
18 -2 13 -5 6 -6 -19 -1 -36 1 -41 18 -36 16 4 22 -3 30 -34 15 -52 14 -63 -6
-63 -11 0 -14 -3 -7 -8 11 -7 34 -66 34 -87 0 -7 -9 -15 -19 -18 -19 -5 -19
-8 -6 -56 12 -47 12 -51 -6 -56 -10 -4 -23 -3 -29 0 -5 3 -10 -1 -10 -9 0 -9
6 -13 14 -10 11 4 18 -6 26 -36 13 -50 8 -70 -20 -70 -13 0 -20 -7 -20 -20 0
-12 5 -17 14 -14 16 6 28 -35 31 -106 1 -25 5 -57 9 -72 6 -22 4 -27 -14 -33
-14 -5 -25 -2 -30 6 -15 23 -22 82 -11 88 16 10 -4 33 -25 29 -20 -4 -23 -29
-10 -85 6 -27 4 -32 -15 -38 -25 -8 -35 3 -44 54 -4 21 -3 37 4 39 13 4 2 32
-13 32 -31 -1 -36 -15 -21 -65 11 -38 12 -51 2 -57 -31 -20 -44 -6 -61 65 -5
21 -3 27 10 27 13 0 14 3 4 15 -14 17 -20 18 -38 7 -10 -7 -9 -18 3 -57 11
-38 12 -51 2 -57 -23 -15 -40 -3 -53 37 -14 46 -19 36 -5 -12 7 -25 6 -33 -6
-37 -29 -11 -41 -6 -47 22 -3 15 -8 37 -12 50 -5 17 -2 22 12 23 11 0 14 3 7
6 -7 2 -13 11 -13 19 0 21 -28 17 -35 -6 -3 -10 -1 -38 6 -60 11 -35 10 -43
-2 -51 -26 -16 -38 -9 -48 29 -14 47 -14 59 -1 64 7 2 5 11 -4 23 -14 17 -17
18 -26 5 -6 -8 -8 -28 -4 -45 13 -61 10 -80 -13 -83 -18 -3 -24 4 -32 35 -13
47 -14 63 -2 63 5 0 7 9 4 20 -3 11 -9 20 -14 20 -5 0 -9 81 -9 181 l0 181
-24 -6 c-21 -5 -25 -1 -35 38 -6 25 -8 51 -5 59 3 8 0 34 -6 57 -9 34 -9 45 2
51 25 16 37 9 47 -28 15 -52 14 -63 -6 -63 -11 0 -14 -3 -7 -8 6 -4 16 -20 22
-37 8 -24 11 -3 11 108 1 89 5 137 12 137 5 0 7 5 3 11 -7 12 13 29 34 29 8 0
16 -9 19 -20z m561 -159 c16 -52 15 -61 -5 -61 -12 0 -14 -3 -7 -8 10 -6 34
-72 34 -93 0 -4 -9 -9 -19 -12 -19 -5 -19 -8 -6 -55 11 -44 11 -51 -2 -56 -30
-12 -41 -5 -47 30 -4 19 -10 42 -13 50 -3 9 2 14 17 14 20 0 22 3 15 33 -4 17
-9 55 -10 82 -1 28 -5 61 -9 74 -6 16 -4 26 5 32 25 16 36 9 47 -30z"/>
<path d="M700 815 l0 -295 215 0 215 0 0 25 c0 23 -2 24 -21 13 -17 -10 -23
-10 -26 0 -4 9 -49 12 -179 12 l-174 0 0 215 c0 137 -4 215 -10 215 -14 0 -12
22 5 44 30 39 39 5 36 -129 -1 -69 0 -125 3 -125 2 0 32 16 65 36 59 35 81 37
81 8 0 -8 2 -14 5 -14 14 0 174 123 169 131 -3 5 6 9 20 9 26 0 26 1 26 75 l0
75 -215 0 -215 0 0 -295z"/>
<path d="M1090 892 c-19 -9 -62 -38 -95 -62 -32 -25 -68 -50 -80 -57 -11 -7
-14 -12 -7 -13 8 0 12 -21 12 -70 0 -68 -1 -70 -25 -70 -25 0 -25 1 -25 90 0
62 4 90 12 90 6 0 9 3 6 6 -7 6 -65 -21 -90 -43 -9 -8 -22 -12 -27 -8 -8 4
-11 -19 -11 -72 l0 -78 160 0 c121 0 160 3 160 13 0 16 10 15 32 -5 17 -16 18
-11 18 140 0 87 -1 157 -3 157 -1 0 -18 -8 -37 -18z"/>
<path d="M3150 1474 c0 -4 -176 -993 -226 -1271 l-6 -33 60 0 59 0 12 78 c7
42 17 105 23 140 l10 63 127 -3 126 -3 22 -135 c12 -74 22 -136 22 -137 2 -6
121 -3 121 3 0 8 -219 1253 -225 1282 -5 20 -11 22 -65 22 -33 0 -60 -3 -60
-6z m114 -579 c26 -165 50 -308 52 -317 5 -16 -5 -18 -107 -18 l-111 0 5 28
c3 15 27 161 53 324 26 164 51 295 55 290 3 -4 27 -142 53 -307z"/>
<path d="M4460 843 c-62 -351 -115 -646 -118 -655 -4 -16 3 -18 56 -18 l60 0
11 63 c6 34 16 97 23 140 l12 77 127 0 127 0 11 -78 c6 -42 16 -105 22 -139
l11 -63 59 0 c50 0 59 3 59 18 -1 9 -51 303 -113 652 l-113 635 -60 3 -60 3
-114 -638z m274 -240 l6 -43 -111 0 -111 0 6 28 c3 15 26 153 51 307 25 154
48 291 51 305 6 21 46 -205 108 -597z"/>
<path d="M3650 820 l0 -650 60 0 60 0 2 458 3 457 165 -457 165 -458 48 0 47
0 0 650 0 650 -60 0 -60 0 -2 -452 -3 -453 -164 453 -163 452 -49 0 -49 0 0
-650z"/>
<path d="M5070 820 l0 -650 215 0 215 0 0 55 0 55 -150 0 -150 0 0 595 0 595
-65 0 -65 0 0 -650z"/>
<path d="M5580 1462 c0 -13 149 -501 193 -632 l42 -125 3 -267 3 -268 60 0 59
0 0 254 0 254 34 114 c48 163 195 644 202 663 5 13 -4 15 -59 15 -53 0 -65 -3
-69 -17 -56 -212 -162 -590 -167 -595 -3 -4 -44 132 -91 302 l-85 310 -62 0
c-35 0 -63 -4 -63 -8z"/>
<path d="M6240 1415 l0 -55 100 0 100 0 0 -595 0 -595 60 0 60 0 0 595 0 595
100 0 100 0 0 55 0 55 -260 0 -260 0 0 -55z"/>
<path d="M6900 820 l0 -650 60 0 60 0 0 650 0 650 -60 0 -60 0 0 -650z"/>
<path d="M7256 1439 l-26 -31 0 -588 0 -588 26 -31 26 -31 213 0 213 0 26 31
c26 30 26 32 26 210 l0 179 -60 0 -60 0 0 -155 0 -155 -145 0 -145 0 0 540 0
540 145 0 145 0 0 -145 0 -145 60 0 60 0 0 169 c0 168 0 170 -26 200 l-26 31
-213 0 -213 0 -26 -31z"/>
<path d="M7989 1457 c-34 -26 -39 -55 -39 -216 0 -88 4 -170 9 -183 5 -14 93
-125 195 -249 l185 -224 1 -152 0 -153 -135 0 -135 0 0 155 0 155 -60 0 -60 0
0 -176 c0 -177 5 -205 39 -231 11 -9 75 -12 218 -13 199 0 202 0 230 24 l28
24 3 184 c2 157 0 188 -15 220 -10 20 -100 136 -200 257 l-183 220 0 130 0
131 135 0 135 0 0 -145 0 -145 66 0 65 0 -3 176 -3 176 -28 24 c-28 24 -31 24
-230 24 -143 -1 -207 -4 -218 -13z"/>
</g>
</svg>
